<?xml version="1.0" standalone="no"?>
<!DOCTYPE svg PUBLIC "-//W3C//DTD SVG 20010904//EN"
 "http://www.w3.org/TR/2001/REC-SVG-20010904/DTD/svg10.dtd">
<svg version="1.0" xmlns="http://www.w3.org/2000/svg"
 width="344.000000pt" height="535.000000pt" viewBox="0 0 344.000000 535.000000"
 preserveAspectRatio="xMidYMid meet">

<g transform="translate(0.000000,535.000000) scale(0.100000,-0.100000)"
fill="#FFFFFF" stroke="none">
<path d="M502 5331 c-306 -76 -520 -372 -499 -691 11 -164 75 -300 201 -426
65 -65 98 -89 166 -122 108 -51 173 -66 285 -66 111 0 177 15 280 64 137 65
254 193 318 345 77 184 59 416 -45 593 -53 91 -180 211 -268 254 -139 67 -293
84 -438 49z"/>
<path d="M2650 5334 c-212 -45 -406 -224 -481 -444 -30 -88 -37 -258 -15 -352
32 -138 129 -292 238 -375 133 -104 310 -154 469 -135 215 26 387 145 497 342
124 222 104 496 -53 715 -61 86 -134 148 -230 196 -133 66 -281 84 -425 53z"/>
<path d="M540 3323 c-171 -29 -368 -169 -453 -323 -61 -112 -82 -197 -81 -335
0 -104 4 -130 28 -200 73 -211 235 -367 451 -431 82 -25 258 -25 339 0 114 34
196 83 282 170 68 67 89 97 127 176 54 113 67 170 67 293 -1 306 -197 563
-486 637 -72 19 -203 25 -274 13z"/>
<path d="M2637 3314 c-32 -7 -91 -30 -130 -50 -228 -114 -367 -338 -367 -591
0 -122 13 -180 65 -288 129 -267 422 -417 705 -361 232 47 413 206 494 435 27
77 30 98 31 206 0 98 -4 134 -23 195 -36 115 -86 195 -176 286 -90 89 -182
142 -296 168 -80 19 -225 19 -303 0z"/>
<path d="M535 1310 c-357 -71 -592 -424 -521 -780 84 -415 535 -647 913 -469
174 82 314 255 358 440 19 83 19 239 0 314 -78 303 -335 507 -635 504 -41 -1
-93 -5 -115 -9z"/>
<path d="M2730 1294 c-206 -34 -353 -121 -451 -266 -180 -265 -151 -598 70
-819 121 -120 268 -181 441 -182 108 0 174 15 280 65 68 33 101 57 166 122 91
91 141 180 170 301 21 92 14 255 -15 338 -74 210 -241 371 -436 421 -65 16
-184 27 -225 20z"/>
</g>
</svg>
